<svg xmlns="http://www.w3.org/2000/svg" version="1.1" xmlns:xlink="http://www.w3.org/1999/xlink" width="1000" height="1000"><g clip-path="url(#SvgjsClipPath1039)"><rect width="1000" height="1000" fill="#ffffff"></rect><g transform="matrix(3.0316154179298396,0,0,3.0316154179298396,196.83845820701606,150)"><svg xmlns="http://www.w3.org/2000/svg" version="1.1" xmlns:xlink="http://www.w3.org/1999/xlink" width="200" height="230.9"><svg version="1.1" id="Layer_1" xmlns="http://www.w3.org/2000/svg" xmlns:xlink="http://www.w3.org/1999/xlink" x="0px" y="0px" viewBox="0 0 200 230.9" style="enable-background:new 0 0 200 230.9;" xml:space="preserve">
<style type="text/css">
	.st0{fill:#FFA100;}
</style>
<path d="M160.8,35.1l13.1-22.6L166.7,0h-14.4l-13.1,22.6L100,0L60.8,22.6L47.8,0H33.4l-7.2,12.5l13.1,22.6L0,57.7v115.5l100,57.7
	l100-57.7V57.7L160.8,35.1z"></path>
<polygon class="st0" points="100,115.5 185,164.5 185,135.7 100,86.6 15,135.7 15,164.5 "></polygon>
<polygon class="st0" points="100,28.9 15,77.9 15,106.8 100,57.7 185,106.8 185,77.9 "></polygon>
</svg></svg></g></g><defs><clipPath id="SvgjsClipPath1039"><rect width="1000" height="1000" x="0" y="0" rx="200" ry="200"></rect></clipPath></defs></svg>