<svg xmlns="http://www.w3.org/2000/svg" version="1.1" xmlns:xlink="http://www.w3.org/1999/xlink" width="1000" height="1000"><g clip-path="url(#SvgjsClipPath1043)"><rect width="1000" height="1000" fill="#ffffff"></rect><g transform="matrix(3.4647033347769596,0,0,3.4647033347769596,153.52966652230407,100)"><svg xmlns="http://www.w3.org/2000/svg" version="1.1" xmlns:xlink="http://www.w3.org/1999/xlink" width="200" height="230.9"><svg id="Layer_1" xmlns="http://www.w3.org/2000/svg" version="1.1" viewBox="0 0 200 230.9">
  <!-- Generator: Adobe Illustrator 29.5.1, SVG Export Plug-In . SVG Version: 2.1.0 Build 141)  -->
  <defs>
    <style>
      .st0 {
        fill: #ffa100;
      }
    </style>
  <clipPath id="SvgjsClipPath1043"><rect width="1000" height="1000" x="0" y="0" rx="350" ry="350"></rect></clipPath></defs>
  <polygon class="st0" points="100 28.9 15 77.9 15 106.8 100 57.7 185 106.8 185 77.9 100 28.9"></polygon>
  <path d="M160.8,35.1l13.1-22.6L166.7,0h-14.4l-13.1,22.6L100,0l-39.2,22.6L47.8,0h-14.4s-7.2,12.5-7.2,12.5l13.1,22.6L0,57.7v115.5l100,57.7,100-57.7V57.7l-39.2-22.6ZM185,164.5l-85-49.1L15,164.5v-28.9l85-49.1,85,49.1v28.9ZM185,106.8l-85-49.1L15,106.8v-28.9L100,28.9l85,49.1v28.9Z"></path>
  <polygon class="st0" points="100 115.5 185 164.5 185 135.7 100 86.6 15 135.7 15 164.5 100 115.5"></polygon>
</svg></svg></g></g></svg>