<svg version="1" xmlns="http://www.w3.org/2000/svg" width="533.333" height="533.333" viewBox="0 0 400.000000 400.000000"><path d="M101.6 7.3c-2.2 1.2-4.1 2.6-4.2 3.2-.2.5 10.6 24.2 24 52.5l24.3 51.5-36.4 21.8L73 158.1v21c0 11.6.3 20.8.8 20.6 26.2-16.1 125-75 125.8-75 .8 0 113.8 68.3 124 75l2.4 1.5v-41.9l-37.2-22.8c-20.5-12.5-37.4-22.8-37.6-23-.1-.1 10.6-23.1 23.8-51 13.2-28 24-51.4 24-52 0-1.2-9.7-6.2-10.4-5.4-.2.2-11.2 23.2-24.3 51.1l-24 50.7L220.9 95c-10.7-6.6-20-12-20.7-12-.8 0-10.8 5.6-22.4 12.5-11.6 6.9-21.1 12.5-21.3 12.5-.1 0-11.1-23.2-24.5-51.5S107.2 5 106.6 5c-.6 0-2.9 1-5 2.3z"/><path d="M135.8 195.8l-62.7 37.7-.1 21.2V276l60.8-36.7c33.4-20.1 61.8-37.3 63.2-38.1 2.4-1.4 4.5-.2 65.8 36.7L326 276v-21.3l-.1-21.2-62.6-37.5c-34.4-20.6-63.1-37.6-63.7-37.7-.6-.2-29.3 16.7-63.8 37.5z"/><path d="M137.5 273.5c-33.5 20-61.9 36.9-62.9 37.7-1.7 1.3-.4 2.3 16.5 12.8 10.1 6.2 38.6 23.8 63.3 39.1l44.9 27.7 10.1-6.2c37.1-23 88.5-54.7 101.4-62.6 12-7.4 15-9.6 14-10.6-1.5-1.3-123.5-73.4-125.2-73.9-.6-.2-28.5 16-62.1 36z"/></svg>